<svg width="1454" height="684" viewBox="0 0 1454 684" fill="none" xmlns="http://www.w3.org/2000/svg">
<rect x="52" y="607" width="2" height="24" rx="1" fill="white"/>
<rect x="44" y="610" width="2" height="24" rx="1" fill="white"/>
<rect x="36" y="615" width="2" height="24" rx="1" fill="white"/>
<rect x="28" y="626" width="2" height="24" rx="1" fill="white"/>
<rect x="20" y="630" width="2" height="24" rx="1" fill="white"/>
<rect x="12" y="639" width="2" height="24" rx="1" fill="white"/>
<rect x="8" y="644" width="2" height="24" rx="1" fill="white"/>
<rect y="660" width="2" height="24" rx="1" fill="white"/>
<rect x="60" y="602" width="2" height="24" rx="1" fill="white"/>
<rect width="2" height="24" rx="1" transform="matrix(1 0 0 -1 68 615)" fill="white"/>
<rect width="2" height="24" rx="1" transform="matrix(1 0 0 -1 76 608)" fill="white"/>
<rect width="2" height="24" rx="1" transform="matrix(1 0 0 -1 84 594)" fill="white"/>
<rect width="2" height="24" rx="1" transform="matrix(1 0 0 -1 92 582)" fill="white"/>
<rect width="2" height="24" rx="1" transform="matrix(1 0 0 -1 100 579)" fill="white"/>
<rect width="2" height="24" rx="1" transform="matrix(1 0 0 -1 108 566)" fill="white"/>
<rect width="2" height="24" rx="1" transform="matrix(1 0 0 -1 116 556)" fill="white"/>
<rect width="2" height="24" rx="1" transform="matrix(1 0 0 -1 124 542)" fill="white"/>
<rect width="2" height="24" rx="1" transform="matrix(1 0 0 -1 132 538)" fill="white"/>
<rect width="2" height="24" rx="1" transform="matrix(1 0 0 -1 140 535)" fill="white"/>
<rect width="2" height="24" rx="1" transform="matrix(1 0 0 -1 148 524)" fill="white"/>
<rect width="2" height="24" rx="1" transform="matrix(1 0 0 -1 156 526)" fill="white"/>
<rect width="2" height="24" rx="1" transform="matrix(1 0 0 -1 164 526)" fill="white"/>
<rect width="2" height="24" rx="1" transform="matrix(1 0 0 -1 172 532)" fill="white"/>
<rect width="2" height="24" rx="1" transform="matrix(1 0 0 -1 180 526)" fill="white"/>
<rect width="2" height="24" rx="1" transform="matrix(1 0 0 -1 188 536)" fill="white"/>
<rect width="2" height="24" rx="1" transform="matrix(1 0 0 -1 196 537)" fill="white"/>
<rect width="2" height="24" rx="1" transform="matrix(1 0 0 -1 204 525)" fill="white"/>
<rect width="2" height="24" rx="1" transform="matrix(1 0 0 -1 212 520)" fill="white"/>
<rect width="2" height="24" rx="1" transform="matrix(1 0 0 -1 220 509)" fill="white"/>
<rect width="2" height="24" rx="1" transform="matrix(1 0 0 -1 228 501)" fill="white"/>
<rect width="2" height="24" rx="1" transform="matrix(1 0 0 -1 236 497)" fill="white"/>
<rect width="2" height="24" rx="1" transform="matrix(1 0 0 -1 244 485)" fill="white"/>
<rect width="2" height="24" rx="1" transform="matrix(1 0 0 -1 252 482)" fill="white"/>
<rect width="2" height="24" rx="1" transform="matrix(1 0 0 -1 260 470)" fill="white"/>
<rect width="2" height="24" rx="1" transform="matrix(1 0 0 -1 268 466)" fill="white"/>
<rect width="2" height="24" rx="1" transform="matrix(1 0 0 -1 276 458)" fill="white"/>
<rect width="2" height="24" rx="1" transform="matrix(1 0 0 -1 284 461)" fill="white"/>
<rect width="2" height="24" rx="1" transform="matrix(1 0 0 -1 292 462)" fill="white"/>
<rect width="2" height="24" rx="1" transform="matrix(1 0 0 -1 300 463)" fill="white"/>
<rect width="2" height="24" rx="1" transform="matrix(1 0 0 -1 308 448)" fill="white"/>
<rect x="316" y="431" width="2" height="24" rx="1" fill="white"/>
<rect width="2" height="24" rx="1" transform="matrix(1 0 0 -1 324 432)" fill="white"/>
<rect width="2" height="24" rx="1" transform="matrix(1 0 0 -1 332 436)" fill="white"/>
<rect width="2" height="24" rx="1" transform="matrix(1 0 0 -1 340 422)" fill="white"/>
<rect width="2" height="24" rx="1" transform="matrix(1 0 0 -1 348 412)" fill="white"/>
<rect width="2" height="24" rx="1" transform="matrix(1 0 0 -1 356 404)" fill="white"/>
<rect width="2" height="24" rx="1" transform="matrix(1 0 0 -1 364 399)" fill="white"/>
<rect x="380" y="370" width="2" height="24" rx="1" fill="white"/>
<rect x="388" y="364" width="2" height="24" rx="1" fill="white"/>
<rect x="396" y="367" width="2" height="24" rx="1" fill="white"/>
<rect x="404" y="354" width="2" height="24" rx="1" fill="white"/>
<rect x="412" y="351" width="2" height="24" rx="1" fill="white"/>
<rect x="420" y="344" width="2" height="24" rx="1" fill="white"/>
<rect x="428" y="341" width="2" height="24" rx="1" fill="white"/>
<rect x="436" y="336" width="2" height="24" rx="1" fill="white"/>
<rect x="444" y="325" width="2" height="24" rx="1" fill="white"/>
<rect x="452" y="309" width="2" height="24" rx="1" fill="white"/>
<rect x="460" y="307" width="2" height="24" rx="1" fill="white"/>
<rect x="468" y="308" width="2" height="24" rx="1" fill="white"/>
<rect x="476" y="295" width="2" height="24" rx="1" fill="white"/>
<rect x="484" y="301" width="2" height="24" rx="1" fill="white"/>
<rect x="492" y="307" width="2" height="24" rx="1" fill="white"/>
<rect x="500" y="306" width="2" height="24" rx="1" fill="white"/>
<rect x="508" y="293" width="2" height="24" rx="1" fill="white"/>
<rect x="516" y="282" width="2" height="24" rx="1" fill="white"/>
<rect x="524" y="277" width="2" height="24" rx="1" fill="white"/>
<rect x="532" y="283" width="2" height="24" rx="1" fill="white"/>
<rect x="540" y="282" width="2" height="24" rx="1" fill="white"/>
<rect x="548" y="271" width="2" height="24" rx="1" fill="white"/>
<rect x="556" y="261" width="2" height="24" rx="1" fill="white"/>
<rect x="564" y="258" width="2" height="24" rx="1" fill="white"/>
<rect x="572" y="269" width="2" height="24" rx="1" fill="white"/>
<rect x="580" y="283" width="2" height="24" rx="1" fill="white"/>
<rect x="588" y="285" width="2" height="24" rx="1" fill="white"/>
<rect x="596" y="287" width="2" height="24" rx="1" fill="white"/>
<rect x="604" y="295" width="2" height="24" rx="1" fill="white"/>
<rect x="612" y="301" width="2" height="24" rx="1" fill="white"/>
<rect x="620" y="290" width="2" height="24" rx="1" fill="white"/>
<rect x="628" y="279" width="2" height="24" rx="1" fill="white"/>
<rect x="636" y="266" width="2" height="24" rx="1" fill="white"/>
<rect x="644" y="261" width="2" height="24" rx="1" fill="white"/>
<rect x="652" y="271" width="2" height="24" rx="1" fill="white"/>
<rect x="660" y="275" width="2" height="24" rx="1" fill="white"/>
<rect x="668" y="263" width="2" height="24" rx="1" fill="white"/>
<rect x="676" y="253" width="2" height="24" rx="1" fill="white"/>
<rect x="684" y="250" width="2" height="24" rx="1" fill="white"/>
<rect x="692" y="259" width="2" height="24" rx="1" fill="white"/>
<rect x="700" y="263" width="2" height="24" rx="1" fill="white"/>
<rect x="708" y="267" width="2" height="24" rx="1" fill="white"/>
<rect x="716" y="285" width="2" height="24" rx="1" fill="white"/>
<rect x="724" y="291" width="2" height="24" rx="1" fill="white"/>
<rect x="732" y="301" width="2" height="24" rx="1" fill="white"/>
<rect x="740" y="293" width="2" height="24" rx="1" fill="white"/>
<rect x="748" y="279" width="2" height="24" rx="1" fill="white"/>
<rect x="756" y="271" width="2" height="24" rx="1" fill="white"/>
<rect x="764" y="263" width="2" height="24" rx="1" fill="white"/>
<rect x="772" y="259" width="2" height="24" rx="1" fill="white"/>
<rect x="780" y="267" width="2" height="24" rx="1" fill="white"/>
<rect x="788" y="283" width="2" height="24" rx="1" fill="white"/>
<rect x="796" y="290" width="2" height="24" rx="1" fill="white"/>
<rect x="804" y="291" width="2" height="24" rx="1" fill="white"/>
<rect x="812" y="285" width="2" height="24" rx="1" fill="white"/>
<rect x="820" y="282" width="2" height="24" rx="1" fill="white"/>
<rect x="828" y="270" width="2" height="24" rx="1" fill="white"/>
<rect x="836" y="264" width="2" height="24" rx="1" fill="white"/>
<rect x="844" y="253" width="2" height="24" rx="1" fill="white"/>
<rect x="852" y="241" width="2" height="24" rx="1" fill="white"/>
<rect x="860" y="231" width="2" height="24" rx="1" fill="white"/>
<rect x="868" y="226" width="2" height="24" rx="1" fill="white"/>
<rect x="876" y="219" width="2" height="24" rx="1" fill="white"/>
<rect x="884" y="212" width="2" height="24" rx="1" fill="white"/>
<rect x="892" y="200" width="2" height="24" rx="1" fill="white"/>
<rect x="900" y="196" width="2" height="24" rx="1" fill="white"/>
<rect x="908" y="187" width="2" height="24" rx="1" fill="white"/>
<rect x="916" y="185" width="2" height="24" rx="1" fill="white"/>
<rect x="924" y="195" width="2" height="24" rx="1" fill="white"/>
<rect x="932" y="208" width="2" height="24" rx="1" fill="white"/>
<rect x="940" y="212" width="2" height="24" rx="1" fill="white"/>
<rect x="948" y="209" width="2" height="24" rx="1" fill="white"/>
<rect x="956" y="199" width="2" height="24" rx="1" fill="white"/>
<rect x="964" y="207" width="2" height="24" rx="1" fill="white"/>
<rect x="972" y="219" width="2" height="24" rx="1" fill="white"/>
<rect x="980" y="231" width="2" height="24" rx="1" fill="white"/>
<rect x="988" y="243" width="2" height="24" rx="1" fill="white"/>
<rect x="996" y="249" width="2" height="24" rx="1" fill="white"/>
<rect x="1004" y="243" width="2" height="24" rx="1" fill="white"/>
<rect x="1012" y="229" width="2" height="24" rx="1" fill="white"/>
<rect x="1020" y="223" width="2" height="24" rx="1" fill="white"/>
<rect x="1028" y="213" width="2" height="24" rx="1" fill="white"/>
<rect x="1036" y="210" width="2" height="24" rx="1" fill="white"/>
<rect x="1044" y="203" width="2" height="24" rx="1" fill="white"/>
<rect x="1052" y="210" width="2" height="24" rx="1" fill="white"/>
<rect x="1060" y="214" width="2" height="24" rx="1" fill="white"/>
<rect x="1068" y="206" width="2" height="24" rx="1" fill="white"/>
<rect x="1076" y="195" width="2" height="24" rx="1" fill="white"/>
<rect x="1084" y="184" width="2" height="24" rx="1" fill="white"/>
<rect x="1092" y="171" width="2" height="24" rx="1" fill="white"/>
<rect x="1100" y="160" width="2" height="24" rx="1" fill="white"/>
<rect x="1108" y="152" width="2" height="24" rx="1" fill="white"/>
<rect x="1116" y="150" width="2" height="24" rx="1" fill="white"/>
<rect x="1124" y="158" width="2" height="24" rx="1" fill="white"/>
<rect x="1132" y="172" width="2" height="24" rx="1" fill="white"/>
<rect x="1140" y="179" width="2" height="24" rx="1" fill="white"/>
<rect x="1148" y="184" width="2" height="24" rx="1" fill="white"/>
<rect x="1156" y="193" width="2" height="24" rx="1" fill="white"/>
<rect x="1164" y="187" width="2" height="24" rx="1" fill="white"/>
<rect x="1172" y="179" width="2" height="24" rx="1" fill="white"/>
<rect x="1180" y="175" width="2" height="24" rx="1" fill="white"/>
<rect x="1188" y="165" width="2" height="24" rx="1" fill="white"/>
<rect x="1196" y="156" width="2" height="24" rx="1" fill="white"/>
<rect x="1204" y="148" width="2" height="24" rx="1" fill="white"/>
<rect x="1212" y="139" width="2" height="24" rx="1" fill="white"/>
<rect x="1220" y="125" width="2" height="24" rx="1" fill="white"/>
<rect x="1228" y="116" width="2" height="24" rx="1" fill="white"/>
<rect x="1236" y="106" width="2" height="24" rx="1" fill="white"/>
<rect x="1244" y="95" width="2" height="24" rx="1" fill="white"/>
<rect x="1252" y="83" width="2" height="24" rx="1" fill="white"/>
<rect x="1260" y="85" width="2" height="24" rx="1" fill="white"/>
<rect x="1268" y="95" width="2" height="24" rx="1" fill="white"/>
<rect x="1276" y="109" width="2" height="24" rx="1" fill="white"/>
<rect x="1284" y="120" width="2" height="24" rx="1" fill="white"/>
<rect x="1292" y="134" width="2" height="24" rx="1" fill="white"/>
<rect x="1300" y="143" width="2" height="24" rx="1" fill="white"/>
<rect x="1308" y="150" width="2" height="24" rx="1" fill="white"/>
<rect x="1316" y="142" width="2" height="24" rx="1" fill="white"/>
<rect x="1324" y="139" width="2" height="24" rx="1" fill="white"/>
<rect x="1332" y="135" width="2" height="24" rx="1" fill="white"/>
<rect x="1340" y="125" width="2" height="24" rx="1" fill="white"/>
<rect x="1348" y="114" width="2" height="24" rx="1" fill="white"/>
<rect x="1356" y="111" width="2" height="24" rx="1" fill="white"/>
<rect x="1364" y="99" width="2" height="24" rx="1" fill="white"/>
<rect x="1372" y="93" width="2" height="24" rx="1" fill="white"/>
<rect x="1380" y="82" width="2" height="24" rx="1" fill="white"/>
<rect x="1388" y="71" width="2" height="24" rx="1" fill="white"/>
<rect x="1396" y="66" width="2" height="24" rx="1" fill="white"/>
<rect x="1404" y="54" width="2" height="24" rx="1" fill="white"/>
<rect x="1412.16" y="42" width="2" height="24" rx="1" transform="rotate(0.371055 1412.16 42)" fill="white"/>
<rect x="1420" y="36" width="2" height="24" rx="1" fill="white"/>
<rect x="1428" y="25" width="2" height="24" rx="1" fill="white"/>
<rect x="1436" y="16" width="2" height="24" rx="1" fill="white"/>
<rect x="1444" y="11" width="2" height="24" rx="1" fill="white"/>
<rect x="1452" width="2" height="24" rx="1" fill="white"/>
<rect x="372" y="381" width="2" height="24" rx="1" fill="white"/>
</svg>
