<svg width="1462" height="694" viewBox="0 0 1462 694" fill="none" xmlns="http://www.w3.org/2000/svg">
<rect x="52" y="619" width="2" height="24" rx="1" fill="white"/>
<rect x="44" y="623" width="2" height="24" rx="1" fill="white"/>
<rect x="36" y="627" width="2" height="24" rx="1" fill="white"/>
<rect x="28" y="638" width="2" height="24" rx="1" fill="white"/>
<rect x="20" y="641" width="2" height="24" rx="1" fill="white"/>
<rect x="8" y="660" width="2" height="24" rx="1" fill="white"/>
<rect y="670" width="2" height="24" rx="1" fill="white"/>
<rect x="60" y="607" width="2" height="24" rx="1" fill="white"/>
<rect width="2" height="24" rx="1" transform="matrix(1 0 0 -1 68 629)" fill="white"/>
<rect width="2" height="24" rx="1" transform="matrix(1 0 0 -1 76 613)" fill="white"/>
<rect width="2" height="24" rx="1" transform="matrix(1 0 0 -1 84 607)" fill="white"/>
<rect width="2" height="24" rx="1" transform="matrix(1 0 0 -1 92 594)" fill="white"/>
<rect width="2" height="24" rx="1" transform="matrix(1 0 0 -1 100 584)" fill="white"/>
<rect width="2" height="24" rx="1" transform="matrix(1 0 0 -1 108 580)" fill="white"/>
<rect width="2" height="24" rx="1" transform="matrix(1 0 0 -1 116 567)" fill="white"/>
<rect width="2" height="24" rx="1" transform="matrix(1 0 0 -1 124 557)" fill="white"/>
<rect width="2" height="24" rx="1" transform="matrix(1 0 0 -1 132 547)" fill="white"/>
<rect width="2" height="24" rx="1" transform="matrix(1 0 0 -1 140 547)" fill="white"/>
<rect width="2" height="24" rx="1" transform="matrix(1 0 0 -1 148 537)" fill="white"/>
<rect width="2" height="24" rx="1" transform="matrix(1 0 0 -1 156 528)" fill="white"/>
<rect width="2" height="24" rx="1" transform="matrix(1 0 0 -1 164 537)" fill="white"/>
<rect width="2" height="24" rx="1" transform="matrix(1 0 0 -1 172 541)" fill="white"/>
<rect width="2" height="24" rx="1" transform="matrix(1 0 0 -1 180 536)" fill="white"/>
<rect width="2" height="24" rx="1" transform="matrix(1 0 0 -1 188 537)" fill="white"/>
<rect width="2" height="24" rx="1" transform="matrix(1 0 0 -1 196 548)" fill="white"/>
<rect width="2" height="24" rx="1" transform="matrix(1 0 0 -1 204 539)" fill="white"/>
<rect width="2" height="24" rx="1" transform="matrix(1 0 0 -1 212 526)" fill="white"/>
<rect width="2" height="24" rx="1" transform="matrix(1 0 0 -1 220 523)" fill="white"/>
<rect width="2" height="24" rx="1" transform="matrix(1 0 0 -1 228 511)" fill="white"/>
<rect width="2" height="24" rx="1" transform="matrix(1 0 0 -1 236 509)" fill="white"/>
<rect width="2" height="24" rx="1" transform="matrix(1 0 0 -1 244 499)" fill="white"/>
<rect width="2" height="24" rx="1" transform="matrix(1 0 0 -1 252 496)" fill="white"/>
<rect width="2" height="24" rx="1" transform="matrix(1 0 0 -1 260 482)" fill="white"/>
<rect width="2" height="24" rx="1" transform="matrix(1 0 0 -1 268 482)" fill="white"/>
<rect width="2" height="24" rx="1" transform="matrix(1 0 0 -1 276 470)" fill="white"/>
<rect width="2" height="24" rx="1" transform="matrix(1 0 0 -1 284 461)" fill="white"/>
<rect width="2" height="24" rx="1" transform="matrix(1 0 0 -1 292 466)" fill="white"/>
<rect width="2" height="24" rx="1" transform="matrix(1 0 0 -1 300 475)" fill="white"/>
<rect width="2" height="24" rx="1" transform="matrix(1 0 0 -1 308 463)" fill="white"/>
<rect width="2" height="24" rx="1" transform="matrix(1 0 0 -1 316 457)" fill="white"/>
<rect x="324" y="431" width="2" height="24" rx="1" fill="white"/>
<rect width="2" height="24" rx="1" transform="matrix(1 0 0 -1 332 443)" fill="white"/>
<rect width="2" height="24" rx="1" transform="matrix(1 0 0 -1 340 436)" fill="white"/>
<rect width="2" height="24" rx="1" transform="matrix(1 0 0 -1 348 422)" fill="white"/>
<rect width="2" height="24" rx="1" transform="matrix(1 0 0 -1 356 416)" fill="white"/>
<rect width="2" height="24" rx="1" transform="matrix(1 0 0 -1 364 411)" fill="white"/>
<rect width="2" height="24" rx="1" transform="matrix(1 0 0 -1 372 403)" fill="white"/>
<rect x="380" y="383" width="2" height="24" rx="1" fill="white"/>
<rect x="388" y="377" width="2" height="24" rx="1" fill="white"/>
<rect x="396" y="367" width="2" height="24" rx="1" fill="white"/>
<rect x="404" y="369" width="2" height="24" rx="1" fill="white"/>
<rect x="412" y="366" width="2" height="24" rx="1" fill="white"/>
<rect x="420" y="353" width="2" height="24" rx="1" fill="white"/>
<rect x="428" y="354" width="2" height="24" rx="1" fill="white"/>
<rect x="436" y="349" width="2" height="24" rx="1" fill="white"/>
<rect x="444" y="332" width="2" height="24" rx="1" fill="white"/>
<rect x="452" y="324" width="2" height="24" rx="1" fill="white"/>
<rect x="460" y="322" width="2" height="24" rx="1" fill="white"/>
<rect x="468" y="310" width="2" height="24" rx="1" fill="white"/>
<rect x="476" y="306" width="2" height="24" rx="1" fill="white"/>
<rect x="484" y="298" width="2" height="24" rx="1" fill="white"/>
<rect x="492" y="310" width="2" height="24" rx="1" fill="white"/>
<rect x="500" y="308" width="2" height="24" rx="1" fill="white"/>
<rect x="508" y="305" width="2" height="24" rx="1" fill="white"/>
<rect x="516" y="294" width="2" height="24" rx="1" fill="white"/>
<rect x="524" y="281" width="2" height="24" rx="1" fill="white"/>
<rect x="532" y="292" width="2" height="24" rx="1" fill="white"/>
<rect x="540" y="296" width="2" height="24" rx="1" fill="white"/>
<rect x="548" y="284" width="2" height="24" rx="1" fill="white"/>
<rect x="556" y="273" width="2" height="24" rx="1" fill="white"/>
<rect x="564" y="265" width="2" height="24" rx="1" fill="white"/>
<rect x="572" y="270" width="2" height="24" rx="1" fill="white"/>
<rect x="580" y="281" width="2" height="24" rx="1" fill="white"/>
<rect x="588" y="286" width="2" height="24" rx="1" fill="white"/>
<rect x="596" y="284" width="2" height="24" rx="1" fill="white"/>
<rect x="604" y="298" width="2" height="24" rx="1" fill="white"/>
<rect x="612" y="311" width="2" height="24" rx="1" fill="white"/>
<rect x="620" y="300" width="2" height="24" rx="1" fill="white"/>
<rect x="628" y="294" width="2" height="24" rx="1" fill="white"/>
<rect x="636" y="281" width="2" height="24" rx="1" fill="white"/>
<rect x="644" y="276" width="2" height="24" rx="1" fill="white"/>
<rect x="652" y="274" width="2" height="24" rx="1" fill="white"/>
<rect x="660" y="285" width="2" height="24" rx="1" fill="white"/>
<rect x="668" y="273" width="2" height="24" rx="1" fill="white"/>
<rect x="676" y="265" width="2" height="24" rx="1" fill="white"/>
<rect x="684" y="254" width="2" height="24" rx="1" fill="white"/>
<rect x="692" y="260" width="2" height="24" rx="1" fill="white"/>
<rect x="700" y="262" width="2" height="24" rx="1" fill="white"/>
<rect x="708" y="276" width="2" height="24" rx="1" fill="white"/>
<rect x="716" y="284" width="2" height="24" rx="1" fill="white"/>
<rect x="724" y="290" width="2" height="24" rx="1" fill="white"/>
<rect x="732" y="305" width="2" height="24" rx="1" fill="white"/>
<rect x="740" y="302" width="2" height="24" rx="1" fill="white"/>
<rect x="748" y="294" width="2" height="24" rx="1" fill="white"/>
<rect x="756" y="288" width="2" height="24" rx="1" fill="white"/>
<rect x="764" y="276" width="2" height="24" rx="1" fill="white"/>
<rect x="772" y="265" width="2" height="24" rx="1" fill="white"/>
<rect x="780" y="268" width="2" height="24" rx="1" fill="white"/>
<rect x="788" y="284" width="2" height="24" rx="1" fill="white"/>
<rect x="796" y="289" width="2" height="24" rx="1" fill="white"/>
<rect x="804" y="301" width="2" height="24" rx="1" fill="white"/>
<rect x="812" y="294" width="2" height="24" rx="1" fill="white"/>
<rect x="820" y="293" width="2" height="24" rx="1" fill="white"/>
<rect x="828" y="283" width="2" height="24" rx="1" fill="white"/>
<rect x="836" y="270" width="2" height="24" rx="1" fill="white"/>
<rect x="844" y="265" width="2" height="24" rx="1" fill="white"/>
<rect x="852" y="255" width="2" height="24" rx="1" fill="white"/>
<rect x="860" y="243" width="2" height="24" rx="1" fill="white"/>
<rect x="868" y="239" width="2" height="24" rx="1" fill="white"/>
<rect x="876" y="229" width="2" height="24" rx="1" fill="white"/>
<rect x="884" y="218" width="2" height="24" rx="1" fill="white"/>
<rect x="892" y="214" width="2" height="24" rx="1" fill="white"/>
<rect x="900" y="202" width="2" height="24" rx="1" fill="white"/>
<rect x="908" y="198" width="2" height="24" rx="1" fill="white"/>
<rect x="916" y="189" width="2" height="24" rx="1" fill="white"/>
<rect x="924" y="200" width="2" height="24" rx="1" fill="white"/>
<rect x="932" y="209" width="2" height="24" rx="1" fill="white"/>
<rect x="940" y="223" width="2" height="24" rx="1" fill="white"/>
<rect x="948" y="221" width="2" height="24" rx="1" fill="white"/>
<rect x="956" y="211" width="2" height="24" rx="1" fill="white"/>
<rect x="964" y="210" width="2" height="24" rx="1" fill="white"/>
<rect x="972" y="219" width="2" height="24" rx="1" fill="white"/>
<rect x="980" y="229" width="2" height="24" rx="1" fill="white"/>
<rect x="988" y="244" width="2" height="24" rx="1" fill="white"/>
<rect x="996" y="253" width="2" height="24" rx="1" fill="white"/>
<rect x="1004" y="252" width="2" height="24" rx="1" fill="white"/>
<rect x="1012" y="244" width="2" height="24" rx="1" fill="white"/>
<rect x="1020" y="238" width="2" height="24" rx="1" fill="white"/>
<rect x="1028" y="225" width="2" height="24" rx="1" fill="white"/>
<rect x="1036" y="221" width="2" height="24" rx="1" fill="white"/>
<rect x="1044" y="213" width="2" height="24" rx="1" fill="white"/>
<rect x="1052" y="213" width="2" height="24" rx="1" fill="white"/>
<rect x="1060" y="218" width="2" height="24" rx="1" fill="white"/>
<rect x="1068" y="218" width="2" height="24" rx="1" fill="white"/>
<rect x="1076" y="208" width="2" height="24" rx="1" fill="white"/>
<rect x="1084" y="197" width="2" height="24" rx="1" fill="white"/>
<rect x="1092" y="184" width="2" height="24" rx="1" fill="white"/>
<rect x="1100" y="173" width="2" height="24" rx="1" fill="white"/>
<rect x="1108" y="163" width="2" height="24" rx="1" fill="white"/>
<rect x="1116" y="153" width="2" height="24" rx="1" fill="white"/>
<rect x="1124" y="160" width="2" height="24" rx="1" fill="white"/>
<rect x="1132" y="170" width="2" height="24" rx="1" fill="white"/>
<rect x="1140" y="181" width="2" height="24" rx="1" fill="white"/>
<rect x="1148" y="185" width="2" height="24" rx="1" fill="white"/>
<rect x="1156" y="195" width="2" height="24" rx="1" fill="white"/>
<rect x="1164" y="197" width="2" height="24" rx="1" fill="white"/>
<rect x="1172" y="190" width="2" height="24" rx="1" fill="white"/>
<rect x="1180" y="181" width="2" height="24" rx="1" fill="white"/>
<rect x="1188" y="177" width="2" height="24" rx="1" fill="white"/>
<rect x="1196" y="170" width="2" height="24" rx="1" fill="white"/>
<rect x="1204" y="158" width="2" height="24" rx="1" fill="white"/>
<rect x="1212" y="146" width="2" height="24" rx="1" fill="white"/>
<rect x="1220" y="138" width="2" height="24" rx="1" fill="white"/>
<rect x="1228" y="130" width="2" height="24" rx="1" fill="white"/>
<rect x="1236" y="116" width="2" height="24" rx="1" fill="white"/>
<rect x="1244" y="109" width="2" height="24" rx="1" fill="white"/>
<rect x="1252" y="95" width="2" height="24" rx="1" fill="white"/>
<rect x="1260" y="87" width="2" height="24" rx="1" fill="white"/>
<rect x="1268" y="96" width="2" height="24" rx="1" fill="white"/>
<rect x="1276" y="110" width="2" height="24" rx="1" fill="white"/>
<rect x="1284" y="121" width="2" height="24" rx="1" fill="white"/>
<rect x="1292" y="135" width="2" height="24" rx="1" fill="white"/>
<rect x="1300" y="145" width="2" height="24" rx="1" fill="white"/>
<rect x="1308" y="155" width="2" height="24" rx="1" fill="white"/>
<rect x="1316" y="153" width="2" height="24" rx="1" fill="white"/>
<rect x="1324" y="151" width="2" height="24" rx="1" fill="white"/>
<rect x="1332" y="141" width="2" height="24" rx="1" fill="white"/>
<rect x="1340" y="137" width="2" height="24" rx="1" fill="white"/>
<rect x="1348" y="127" width="2" height="24" rx="1" fill="white"/>
<rect x="1356" y="122" width="2" height="24" rx="1" fill="white"/>
<rect x="1364" y="110" width="2" height="24" rx="1" fill="white"/>
<rect x="1372" y="99" width="2" height="24" rx="1" fill="white"/>
<rect x="1380" y="95" width="2" height="24" rx="1" fill="white"/>
<rect x="1388" y="85" width="2" height="24" rx="1" fill="white"/>
<rect x="1396" y="79" width="2" height="24" rx="1" fill="white"/>
<rect x="1404" y="67" width="2" height="24" rx="1" fill="white"/>
<rect x="1412" y="54" width="2" height="24" rx="1" fill="white"/>
<rect x="1420" y="42" width="2" height="24" rx="1" fill="white"/>
<rect x="1428" y="38" width="2" height="24" rx="1" fill="white"/>
<rect x="1436" y="26" width="2" height="24" rx="1" fill="white"/>
<rect x="1444" y="22" width="2" height="24" rx="1" fill="white"/>
<rect x="1452" y="13" width="2" height="24" rx="1" fill="white"/>
<rect x="1460" width="2" height="24" rx="1" fill="white"/>
</svg>
