<svg width="36" height="667" viewBox="0 0 36 667" fill="none" xmlns="http://www.w3.org/2000/svg">
<path opacity="0.2" d="M18 1L18 302" stroke="#979797" stroke-width="1.37541" stroke-linecap="round" stroke-linejoin="round"/>
<path opacity="0.2" d="M18 364L18 666" stroke="#979797" stroke-width="1.3777" stroke-linecap="round" stroke-linejoin="round"/>
<path fill-rule="evenodd" clip-rule="evenodd" d="M12.5634 322.953C15.696 320.257 20.3247 320.243 23.4734 322.92L30.1788 328.621C30.615 328.991 30.6301 329.66 30.2111 330.05L28.5436 331.602L22.6786 326.18C20.0389 323.74 15.964 323.747 13.3328 326.197L4.42705 334.488C3.13218 335.694 3.17882 337.759 4.5268 338.905L11.2322 344.606C15.1313 347.92 20.863 347.903 24.7421 344.565L35.4814 335.324C35.9 334.964 35.9473 334.333 35.5871 333.914C35.2269 333.496 34.5955 333.448 34.1769 333.808L23.4376 343.049C20.305 345.745 15.6763 345.759 12.5276 343.082L5.82219 337.381C5.38599 337.011 5.3709 336.342 5.78991 335.952L7.45745 334.4L13.3224 339.822C15.9621 342.262 20.037 342.255 22.6682 339.805L31.574 331.514C32.8688 330.308 32.8222 328.243 31.4742 327.097L24.7688 321.396C20.8698 318.082 15.138 318.099 11.2589 321.437L0.51965 330.678C0.101012 331.038 0.0536581 331.669 0.413881 332.088C0.774105 332.506 1.4055 332.554 1.82413 332.194L12.5634 322.953ZM21.3209 327.649L27.0757 332.969L21.3053 338.342C19.4401 340.078 16.5514 340.083 14.6801 338.353L8.92532 333.033L14.6957 327.66C16.5609 325.924 19.4496 325.919 21.3209 327.649ZM19.525 333.001C19.525 333.842 18.8435 334.523 18.0028 334.523C17.162 334.523 16.4805 333.842 16.4805 333.001C16.4805 332.16 17.162 331.479 18.0028 331.479C18.8435 331.479 19.525 332.16 19.525 333.001ZM21.525 333.001C21.525 334.946 19.948 336.523 18.0028 336.523C16.0575 336.523 14.4805 334.946 14.4805 333.001C14.4805 331.056 16.0575 329.479 18.0028 329.479C19.948 329.479 21.525 331.056 21.525 333.001Z" fill="#E1E1E1"/>
</svg>
